<?xml version="1.0" encoding="utf-8"?>
<!-- Generator: Adobe Illustrator 23.1.1, SVG Export Plug-In . SVG Version: 6.00 Build 0)  -->
<svg version="1.1" id="Capa_1" xmlns="http://www.w3.org/2000/svg" xmlns:xlink="http://www.w3.org/1999/xlink" x="0px" y="0px"
	 viewBox="0 0 500 18.2" style="enable-background:new 0 0 500 18.2;" xml:space="preserve">
<title>viaje</title>
<g>
	<polygon points="207.5,1.9 201.4,1.9 196.5,6.8 191,7.2 191,7.6 0,7.6 0,10.6 191,10.6 191,11.2 196.6,11.8 201.7,16.5 207.7,16.5 
		207.7,18.2 210.4,18.2 210.4,0 207.5,0 	"/>
	<path d="M294.1,7.6l0-0.4l-5.8-0.4l-5.1-4.8h-6.3V0l-3,0v4.6H267c-0.5,0-1,0.4-1,1v0.1c0,0.5,0.4,1,1,1h6.9v5H267c-0.5,0-1,0.4-1,1
		v0.1c0,0.5,0.4,1,1,1h6.9v4.6l2.8,0v-1.7h6.3l5.3-4.7l5.8-0.6l0-0.6h206v-3H294.1z"/>
</g>
</svg>
